<?xml version="1.0" standalone="no"?>
<!DOCTYPE svg PUBLIC "-//W3C//DTD SVG 20010904//EN"
 "http://www.w3.org/TR/2001/REC-SVG-20010904/DTD/svg10.dtd">
<svg version="1.0" xmlns="http://www.w3.org/2000/svg"
 width="512.000000pt" height="512.000000pt" viewBox="0 0 512.000000 512.000000"
 preserveAspectRatio="xMidYMid meet">
<metadata>
Created by potrace 1.11, written by Peter Selinger 2001-2013
</metadata>
<g transform="translate(0.000000,512.000000) scale(0.100000,-0.100000)"
fill="#000000" stroke="none">
<path d="M2325 3865 c-117 -21 -306 -87 -495 -173 -47 -21 -88 -31 -150 -37
-162 -13 -347 -105 -494 -245 -125 -118 -220 -255 -388 -558 -187 -335 -293
-637 -328 -934 -31 -268 74 -499 292 -644 89 -59 183 -98 277 -114 89 -15 133
-6 245 53 l79 41 216 -73 c182 -62 231 -83 311 -134 125 -79 270 -153 346
-177 166 -51 428 -48 644 6 148 37 196 61 286 144 48 44 102 83 139 100 65 30
211 70 343 94 l83 16 62 -31 c178 -90 290 -91 476 -3 208 98 346 258 382 442
17 90 6 264 -24 382 -39 151 -156 515 -202 630 -75 186 -206 428 -323 595
-112 160 -300 323 -432 375 -105 41 -149 44 -236 15 l-77 -26 -101 42 c-252
104 -522 187 -701 214 -117 17 -137 17 -230 0z m328 -222 c-29 -2 -77 -2 -105
0 -29 2 -6 3 52 3 58 0 81 -1 53 -3z m-269 -25 c-1 -13 -8 -57 -14 -98 -6 -41
-22 -158 -35 -260 -14 -102 -29 -218 -35 -257 -5 -40 -15 -108 -21 -150 -5
-43 -14 -105 -20 -138 -5 -33 -14 -98 -19 -145 -5 -47 -14 -114 -19 -150 -5
-36 -15 -103 -21 -150 -10 -80 -30 -133 -30 -82 0 53 -69 143 -129 168 -41 17
-120 18 -158 2 -117 -51 -176 -196 -127 -314 41 -99 104 -144 206 -145 79 0
99 9 -295 -131 -32 -11 -61 -18 -63 -15 -3 3 -1 40 5 84 5 43 15 137 21 208 6
72 15 177 20 235 6 58 17 186 25 284 9 99 24 216 35 260 10 45 26 113 34 151
23 106 53 237 84 370 l27 120 62 37 c35 21 79 42 100 47 102 26 283 69 323 78
25 6 46 11 46 12 1 0 0 -9 -2 -21z m476 -7 c103 -32 247 -83 295 -105 17 -8
46 -21 66 -29 32 -13 43 -27 78 -101 22 -47 41 -93 41 -102 0 -9 4 -33 10 -53
26 -96 96 -492 119 -671 21 -161 41 -770 26 -770 -7 0 -399 132 -404 136 -2 1
21 0 52 -3 138 -14 239 83 241 232 0 59 -4 78 -28 122 -33 59 -80 96 -147 114
-127 34 -256 -81 -260 -231 l-1 -55 -8 50 c-33 208 -47 298 -60 400 -5 44 -14
108 -20 143 -5 34 -14 91 -20 127 -5 36 -14 95 -20 133 -11 70 -45 309 -61
422 -10 71 -23 161 -34 228 -7 40 -6 42 16 42 13 0 67 -13 119 -29z m-114
-361 c28 -195 80 -546 114 -780 34 -234 66 -450 70 -480 4 -30 11 -56 16 -58
5 -2 137 -47 293 -100 l285 -97 58 -175 c32 -96 58 -179 58 -185 0 -6 -96 -30
-212 -54 l-213 -44 -139 -120 c-163 -141 -145 -135 -400 -136 -177 -1 -324 16
-459 54 -118 33 -171 62 -242 132 l-60 58 -195 24 c-107 13 -198 25 -201 27
-8 4 76 383 87 394 5 4 133 52 284 105 151 54 279 101 284 105 8 8 23 107 111
750 25 184 54 396 65 470 10 74 29 210 41 303 l23 168 140 -3 140 -3 52 -355z
m-1150 138 c-4 -18 -11 -57 -17 -85 -31 -173 -56 -317 -70 -388 -10 -54 -23
-173 -39 -355 -5 -63 -14 -167 -19 -230 -6 -63 -15 -218 -21 -345 -19 -419
-52 -509 -214 -588 -76 -37 -163 -34 -316 12 -83 25 -129 75 -166 177 -23 64
-32 319 -14 419 31 181 121 460 188 585 260 488 371 626 637 797 27 18 52 33
54 33 2 0 0 -15 -3 -32z m2176 -116 c147 -136 312 -411 446 -747 33 -82 69
-170 79 -195 85 -196 127 -391 121 -558 -3 -98 -7 -113 -38 -176 -40 -80 -125
-173 -185 -201 -88 -42 -249 -28 -338 30 -38 26 -93 101 -120 167 -18 42 -44
454 -63 988 -4 96 -13 204 -20 240 -29 136 -107 517 -114 557 l-7 43 91 -48
c49 -26 116 -71 148 -100z m-729 -1323 c46 -33 44 -35 -23 -13 -52 17 -55 21
-65 99 l-7 50 27 -53 c17 -32 44 -66 68 -83z m-880 47 c-6 -45 -8 -50 -47 -66
-78 -34 -93 -34 -41 1 30 21 57 50 70 75 11 23 21 41 22 40 0 0 -1 -23 -4 -50z"/>
<path d="M2458 1785 c-199 -50 -246 -159 -118 -272 52 -45 125 -75 187 -74
119 0 253 74 278 152 19 60 -35 147 -113 181 -57 26 -162 31 -234 13z"/>
</g>
</svg>
